<svg xmlns="http://www.w3.org/2000/svg" xmlns:xlink="http://www.w3.org/1999/xlink" width="256" zoomAndPan="magnify" viewBox="0 0 192 191.999996" height="256" preserveAspectRatio="xMidYMid meet" version="1.0"><defs><clipPath id="7299c7bfdd"><path d="M 42 45 L 177 45 L 177 153 L 42 153 Z M 42 45 " clip-rule="nonzero"/></clipPath><clipPath id="af4ec46ed6"><path d="M 23.957031 32.929688 L 185.566406 62.269531 L 168.015625 158.941406 L 6.40625 129.597656 Z M 23.957031 32.929688 " clip-rule="nonzero"/></clipPath><clipPath id="db4c452cca"><path d="M 23.957031 32.929688 L 185.566406 62.269531 L 168.015625 158.941406 L 6.40625 129.597656 Z M 23.957031 32.929688 " clip-rule="nonzero"/></clipPath><clipPath id="c4f64653c8"><path d="M 89 108 L 171 108 L 171 142 L 89 142 Z M 89 108 " clip-rule="nonzero"/></clipPath><clipPath id="5623a2b5e9"><path d="M 23.957031 32.929688 L 185.566406 62.269531 L 168.015625 158.941406 L 6.40625 129.597656 Z M 23.957031 32.929688 " clip-rule="nonzero"/></clipPath><clipPath id="994e4547b1"><path d="M 23.957031 32.929688 L 185.566406 62.269531 L 168.015625 158.941406 L 6.40625 129.597656 Z M 23.957031 32.929688 " clip-rule="nonzero"/></clipPath><clipPath id="ef1af53bea"><path d="M 12 76 L 50 76 L 50 115 L 12 115 Z M 12 76 " clip-rule="nonzero"/></clipPath><clipPath id="19e8d71d34"><path d="M 23.957031 32.929688 L 185.566406 62.269531 L 168.015625 158.941406 L 6.40625 129.597656 Z M 23.957031 32.929688 " clip-rule="nonzero"/></clipPath><clipPath id="b869b46505"><path d="M 23.957031 32.929688 L 185.566406 62.269531 L 168.015625 158.941406 L 6.40625 129.597656 Z M 23.957031 32.929688 " clip-rule="nonzero"/></clipPath></defs><g clip-path="url(#7299c7bfdd)"><g clip-path="url(#af4ec46ed6)"><g clip-path="url(#db4c452cca)"><path fill="#ff751f" d="M 48.496094 56.640625 C 54.960938 51.132812 62.160156 52.316406 67.304688 51.425781 C 72.445312 50.535156 73.984375 47.414062 78.671875 45.710938 C 83.355469 44.011719 95.746094 46.019531 106.925781 56.070312 C 118.105469 66.117188 108.660156 65.253906 128.136719 69.761719 C 147.613281 74.269531 160.882812 75.464844 164.265625 76.929688 C 167.644531 78.394531 175.570312 87.613281 176.355469 97.355469 C 177.242188 108.367188 174.183594 111.351562 164.539062 115.46875 C 160.746094 117.089844 156.035156 118.398438 151.046875 118.277344 C 141.003906 118.03125 116.296875 110.875 105.550781 109.167969 C 94.804688 107.457031 81.566406 109.429688 75.050781 108.488281 C 74.007812 108.339844 72.839844 108.152344 71.59375 107.925781 C 72.480469 110.738281 72.433594 114.367188 71.769531 116.523438 C 70.882812 119.398438 75.738281 124.777344 81.363281 127.257812 C 86.988281 129.738281 108.417969 133.507812 124.164062 133.8125 C 139.90625 134.121094 156.429688 138.820312 159.457031 141.558594 C 162.484375 144.296875 164.390625 145.855469 159.695312 149.621094 C 155 153.386719 142.777344 154.449219 132.335938 150.367188 C 121.898438 146.28125 107.3125 143.632812 97.449219 143.058594 C 87.589844 142.484375 69.410156 140.882812 59.828125 134.769531 C 50.242188 128.652344 48.710938 113.667969 51.445312 109.308594 C 53.054688 106.746094 55.988281 104.71875 58.136719 103.480469 C 56.382812 102.40625 55.007812 101.132812 54.296875 99.617188 C 51.667969 94.039062 53.085938 89.554688 51.546875 88.667969 C 50.59375 88.117188 47.613281 85.152344 45.453125 81.984375 C 40.898438 75.300781 42.421875 61.808594 48.492188 56.640625 Z M 154.058594 83.324219 C 155.261719 84.058594 157.0625 85.433594 158.128906 87.585938 C 159.835938 91.035156 160.417969 93.152344 162.238281 93.320312 C 164.058594 93.488281 166.3125 91.722656 165.75 89.046875 C 165.1875 86.371094 158.523438 82.742188 156.554688 82.066406 C 155.015625 81.535156 152.773438 81.320312 152.519531 81.945312 C 152.257812 82.59375 153.707031 83.109375 154.058594 83.320312 Z M 123.917969 77.078125 C 123.917969 77.078125 130.007812 84.4375 128.199219 87.132812 C 126.394531 89.824219 121.234375 92.875 116.796875 92.394531 C 112.359375 91.910156 111.71875 89.855469 111.945312 84.9375 C 112.175781 80.015625 117.597656 70.867188 123.914062 77.078125 Z M 79.75 81.21875 C 83.007812 82.617188 87.410156 83.480469 93.082031 82.667969 C 102.445312 81.324219 108.539062 74.109375 109.125 69.570312 C 109.710938 65.027344 104.382812 60.304688 95.1875 56.6875 C 92.519531 55.636719 89.597656 55.039062 86.722656 54.789062 C 61.546875 52.613281 69.675781 76.894531 79.746094 81.21875 Z M 79.75 81.21875 " fill-opacity="1" fill-rule="evenodd"/></g></g></g><g clip-path="url(#c4f64653c8)"><g clip-path="url(#5623a2b5e9)"><g clip-path="url(#994e4547b1)"><path fill="#fbbf24" d="M 114.335938 123.09375 C 115.734375 126.730469 115.398438 129.976562 114.429688 133.265625 C 111.734375 133.035156 108.996094 132.738281 106.308594 132.398438 C 109.574219 129.980469 112.199219 127.179688 113.917969 123.085938 C 113.953125 123 114.035156 122.949219 114.128906 122.949219 C 114.226562 122.949219 114.304688 123.003906 114.335938 123.09375 Z M 91.742188 116.90625 C 94.765625 114.578125 96.171875 111.703125 97.058594 108.46875 C 95.011719 108.417969 92.960938 108.433594 90.960938 108.480469 C 91.613281 111.0625 91.828125 113.734375 91.382812 116.695312 C 91.363281 116.785156 91.410156 116.875 91.488281 116.921875 C 91.570312 116.96875 91.667969 116.964844 91.742188 116.90625 Z M 168.460938 121.535156 C 170.535156 118.496094 171.023438 115.445312 170.914062 112.230469 C 169.503906 113.160156 167.808594 114.027344 165.785156 114.925781 C 166.855469 116.863281 167.636719 118.988281 168.050781 121.445312 C 168.066406 121.539062 168.132812 121.609375 168.226562 121.632812 C 168.316406 121.652344 168.410156 121.617188 168.460938 121.539062 Z M 152.144531 126.339844 C 154.6875 123.816406 155.753906 120.988281 156.269531 117.90625 C 154.585938 118.175781 152.832031 118.320312 151.046875 118.273438 C 150.832031 118.269531 150.609375 118.257812 150.378906 118.246094 C 151.308594 120.675781 151.828125 123.25 151.761719 126.171875 C 151.757812 126.265625 151.8125 126.347656 151.898438 126.382812 C 151.984375 126.417969 152.082031 126.402344 152.148438 126.335938 Z M 135.273438 125.519531 C 139.105469 123.652344 141.097656 120.710938 142.695312 117.261719 C 140.640625 116.898438 138.421875 116.453125 136.125 115.960938 C 136.40625 119.007812 136.140625 122.023438 134.960938 125.238281 C 134.929688 125.324219 134.953125 125.417969 135.023438 125.480469 C 135.09375 125.546875 135.1875 125.558594 135.269531 125.515625 Z M 121.246094 121.539062 C 124.734375 119.839844 126.699219 117.25 128.230469 114.195312 C 126.191406 113.722656 124.152344 113.242188 122.15625 112.769531 C 122.324219 115.550781 122.011719 118.324219 120.933594 121.257812 C 120.902344 121.347656 120.925781 121.441406 120.996094 121.503906 C 121.066406 121.566406 121.160156 121.582031 121.246094 121.539062 Z M 106.6875 118.894531 C 110.425781 117.070312 112.417969 114.21875 114 110.871094 C 111.625 110.335938 109.445312 109.871094 107.550781 109.515625 C 107.808594 112.5 107.53125 115.460938 106.375 118.613281 C 106.339844 118.703125 106.363281 118.796875 106.433594 118.859375 C 106.503906 118.921875 106.601562 118.9375 106.6875 118.894531 Z M 158.726562 132.15625 C 159.972656 135.402344 159.839844 138.335938 159.105469 141.269531 C 158.101562 140.535156 156.25 139.6875 153.78125 138.835938 C 155.632812 136.996094 157.167969 134.855469 158.304688 132.148438 C 158.339844 132.0625 158.421875 132.011719 158.515625 132.011719 C 158.613281 132.011719 158.691406 132.070312 158.726562 132.15625 Z M 144.425781 128.558594 C 145.496094 131.339844 145.546875 133.898438 145.078125 136.421875 C 143.28125 136.019531 141.382812 135.644531 139.414062 135.304688 C 141.296875 133.449219 142.855469 131.289062 144.007812 128.550781 C 144.042969 128.464844 144.125 128.410156 144.21875 128.410156 C 144.316406 128.410156 144.394531 128.464844 144.429688 128.558594 Z M 128.125 125.597656 C 129.273438 128.582031 129.253906 131.308594 128.667969 134.011719 C 127.167969 133.910156 125.664062 133.839844 124.164062 133.808594 C 123.320312 133.792969 122.460938 133.765625 121.585938 133.730469 C 124.164062 131.570312 126.253906 129.039062 127.703125 125.589844 C 127.742188 125.503906 127.820312 125.449219 127.917969 125.453125 C 128.011719 125.453125 128.089844 125.507812 128.125 125.597656 Z M 97.574219 120.050781 C 99.09375 124 98.566406 127.496094 97.398438 131.085938 C 94.453125 130.589844 91.710938 130.0625 89.308594 129.53125 C 92.679688 127.074219 95.390625 124.234375 97.15625 120.042969 C 97.191406 119.957031 97.273438 119.90625 97.367188 119.90625 C 97.464844 119.90625 97.542969 119.960938 97.574219 120.050781 Z M 97.574219 120.050781 " fill-opacity="1" fill-rule="evenodd"/></g></g></g><g clip-path="url(#ef1af53bea)"><g clip-path="url(#19e8d71d34)"><g clip-path="url(#b869b46505)"><path fill="#ff751f" d="M 30.734375 80.324219 C 33.472656 79.96875 34.429688 80.386719 35.789062 78.265625 C 37.144531 76.140625 39.945312 75.433594 41.261719 78.222656 C 42.578125 81.015625 44.175781 85.253906 46.074219 87.542969 C 47.964844 89.832031 51.148438 92.046875 49.335938 93.664062 C 47.523438 95.28125 45.8125 94.664062 45.148438 96.972656 C 44.488281 99.28125 42.230469 100.328125 39.644531 99.859375 C 37.363281 99.445312 27.695312 94.332031 25.988281 87.890625 C 25.140625 84.664062 27.902344 80.6875 30.734375 80.320312 Z M 23.769531 91.574219 C 26.550781 92.992188 29.128906 97.53125 30.726562 98.429688 C 32.328125 99.328125 36.371094 101.15625 38.316406 101.8125 C 40.742188 102.628906 40.351562 104.925781 38.167969 106.027344 C 37.472656 106.375 36.746094 106.769531 36.445312 107.425781 C 36.085938 108.222656 36.015625 109.289062 36.023438 110.457031 C 36.027344 114.320312 33.558594 115.058594 30.417969 114.839844 C 24.144531 114.398438 14.433594 111.28125 12.664062 104.566406 C 11.65625 100.738281 14.890625 98.652344 17.195312 97.671875 C 18.632812 97.0625 19.207031 96.269531 19.46875 95.542969 C 20.125 93.753906 20.839844 90.085938 23.769531 91.574219 Z M 23.769531 91.574219 " fill-opacity="1" fill-rule="evenodd"/></g></g></g></svg>