<svg xmlns="http://www.w3.org/2000/svg" xmlns:xlink="http://www.w3.org/1999/xlink" width="512" zoomAndPan="magnify" viewBox="0 0 384 383.999986" height="512" preserveAspectRatio="xMidYMid meet" version="1.0"><defs><clipPath id="92213a221a"><path d="M 85 90 L 354 90 L 354 306 L 85 306 Z M 85 90 " clip-rule="nonzero"/></clipPath><clipPath id="06374ea894"><path d="M 47.917969 65.859375 L 371.132812 124.542969 L 336.03125 317.882812 L 12.816406 259.199219 Z M 47.917969 65.859375 " clip-rule="nonzero"/></clipPath><clipPath id="fe2966aeb2"><path d="M 47.917969 65.859375 L 371.132812 124.542969 L 336.03125 317.882812 L 12.816406 259.199219 Z M 47.917969 65.859375 " clip-rule="nonzero"/></clipPath><clipPath id="bd8d289cbd"><path d="M 178 216 L 342 216 L 342 283 L 178 283 Z M 178 216 " clip-rule="nonzero"/></clipPath><clipPath id="eb1b9ec1b4"><path d="M 47.917969 65.859375 L 371.132812 124.542969 L 336.03125 317.882812 L 12.816406 259.199219 Z M 47.917969 65.859375 " clip-rule="nonzero"/></clipPath><clipPath id="a484fe27eb"><path d="M 47.917969 65.859375 L 371.132812 124.542969 L 336.03125 317.882812 L 12.816406 259.199219 Z M 47.917969 65.859375 " clip-rule="nonzero"/></clipPath><clipPath id="5a9ab84688"><path d="M 24 152 L 100 152 L 100 230 L 24 230 Z M 24 152 " clip-rule="nonzero"/></clipPath><clipPath id="6abe42ec36"><path d="M 47.917969 65.859375 L 371.132812 124.542969 L 336.03125 317.882812 L 12.816406 259.199219 Z M 47.917969 65.859375 " clip-rule="nonzero"/></clipPath><clipPath id="ce01884f14"><path d="M 47.917969 65.859375 L 371.132812 124.542969 L 336.03125 317.882812 L 12.816406 259.199219 Z M 47.917969 65.859375 " clip-rule="nonzero"/></clipPath></defs><g clip-path="url(#92213a221a)"><g clip-path="url(#06374ea894)"><g clip-path="url(#fe2966aeb2)"><path fill="#4ca626" d="M 96.988281 113.285156 C 109.925781 102.269531 124.320312 104.636719 134.605469 102.859375 C 144.890625 101.078125 147.972656 94.832031 157.339844 91.429688 C 166.707031 88.027344 191.496094 92.046875 213.855469 112.144531 C 236.210938 132.242188 217.324219 130.511719 256.273438 139.53125 C 295.226562 148.546875 321.765625 150.9375 328.527344 153.867188 C 335.292969 156.796875 351.140625 175.230469 352.710938 194.714844 C 354.484375 216.738281 348.371094 222.710938 329.074219 230.945312 C 321.492188 234.183594 312.066406 236.804688 302.089844 236.558594 C 282.011719 236.070312 232.59375 221.757812 211.101562 218.339844 C 189.605469 214.917969 163.128906 218.863281 150.097656 216.984375 C 148.015625 216.683594 145.675781 216.3125 143.1875 215.855469 C 144.960938 221.484375 144.867188 228.742188 143.535156 233.050781 C 141.761719 238.804688 151.472656 249.558594 162.726562 254.519531 C 173.976562 259.480469 216.839844 267.019531 248.328125 267.632812 C 279.808594 268.246094 312.859375 277.648438 318.914062 283.121094 C 324.96875 288.597656 328.777344 291.71875 319.390625 299.246094 C 310 306.777344 285.550781 308.902344 264.675781 300.738281 C 243.796875 292.570312 214.625 287.273438 194.902344 286.121094 C 175.179688 284.972656 138.820312 281.773438 119.652344 269.542969 C 100.488281 257.3125 97.421875 227.34375 102.890625 218.621094 C 106.109375 213.496094 111.976562 209.445312 116.269531 206.964844 L 116.277344 206.964844 C 112.765625 204.820312 110.019531 202.269531 108.59375 199.242188 C 103.332031 188.082031 106.171875 179.117188 103.09375 177.339844 C 101.191406 176.242188 95.222656 170.3125 90.902344 163.976562 C 81.796875 150.609375 84.84375 123.621094 96.984375 113.285156 Z M 308.113281 166.65625 C 310.523438 168.121094 314.125 170.871094 316.257812 175.175781 C 319.671875 182.078125 320.835938 186.308594 324.476562 186.644531 C 328.117188 186.984375 332.621094 183.453125 331.496094 178.097656 C 330.375 172.746094 317.046875 165.492188 313.109375 164.140625 C 310.027344 163.074219 305.546875 162.644531 305.042969 163.898438 C 304.515625 165.191406 307.414062 166.226562 308.113281 166.648438 Z M 247.832031 154.164062 C 247.832031 154.164062 260.015625 168.882812 256.398438 174.269531 C 252.785156 179.65625 242.472656 185.757812 233.597656 184.792969 C 224.722656 183.828125 223.441406 179.71875 223.894531 169.878906 C 224.351562 160.039062 235.195312 141.738281 247.828125 154.164062 Z M 159.496094 162.445312 C 166.011719 165.242188 174.816406 166.96875 186.164062 165.339844 C 204.894531 162.652344 217.082031 148.226562 218.253906 139.144531 C 219.417969 130.0625 208.761719 120.617188 190.378906 113.378906 C 185.035156 111.28125 179.199219 110.082031 173.445312 109.582031 C 123.089844 105.230469 139.347656 153.792969 159.492188 162.445312 Z M 159.496094 162.445312 " fill-opacity="1" fill-rule="evenodd"/></g></g></g><g clip-path="url(#bd8d289cbd)"><g clip-path="url(#eb1b9ec1b4)"><g clip-path="url(#a484fe27eb)"><path fill="#ffcea1" d="M 228.675781 246.195312 C 231.472656 253.464844 230.796875 259.957031 228.859375 266.539062 C 223.464844 266.078125 217.992188 265.484375 212.621094 264.804688 C 219.144531 259.964844 224.394531 254.367188 227.835938 246.179688 C 227.90625 246.007812 228.070312 245.902344 228.257812 245.902344 C 228.449219 245.902344 228.605469 246.011719 228.675781 246.195312 Z M 183.488281 233.820312 C 189.53125 229.160156 192.34375 223.410156 194.117188 216.941406 C 190.027344 216.84375 185.925781 216.875 181.921875 216.964844 C 183.230469 222.128906 183.652344 227.472656 182.761719 233.394531 C 182.726562 233.578125 182.816406 233.757812 182.980469 233.851562 C 183.136719 233.945312 183.335938 233.933594 183.480469 233.820312 Z M 336.921875 243.074219 C 341.066406 237 342.046875 230.898438 341.824219 224.46875 C 339.011719 226.328125 335.613281 228.058594 331.574219 229.855469 C 333.714844 233.734375 335.273438 237.984375 336.105469 242.898438 C 336.132812 243.082031 336.269531 243.226562 336.453125 243.269531 C 336.636719 243.308594 336.820312 243.238281 336.921875 243.082031 Z M 304.292969 252.683594 C 309.375 247.640625 311.507812 241.984375 312.539062 235.816406 C 309.167969 236.359375 305.667969 236.644531 302.089844 236.550781 C 301.664062 236.542969 301.21875 236.523438 300.761719 236.5 C 302.621094 241.359375 303.660156 246.507812 303.523438 252.347656 C 303.515625 252.535156 303.625 252.699219 303.800781 252.773438 C 303.972656 252.84375 304.167969 252.8125 304.300781 252.679688 Z M 270.546875 251.042969 C 278.207031 247.308594 282.195312 241.425781 285.394531 234.527344 C 281.277344 233.800781 276.847656 232.914062 272.25 231.929688 C 272.808594 238.019531 272.277344 244.054688 269.921875 250.480469 C 269.855469 250.65625 269.902344 250.84375 270.042969 250.972656 C 270.183594 251.097656 270.375 251.125 270.542969 251.039062 Z M 242.496094 243.082031 C 249.46875 239.683594 253.394531 234.503906 256.457031 228.398438 C 252.382812 227.453125 248.304688 226.488281 244.3125 225.546875 C 244.648438 231.105469 244.023438 236.652344 241.871094 242.519531 C 241.804688 242.699219 241.851562 242.886719 241.992188 243.011719 C 242.132812 243.140625 242.324219 243.167969 242.496094 243.082031 Z M 213.371094 237.796875 C 220.851562 234.144531 224.835938 228.445312 227.996094 221.746094 C 223.25 220.679688 218.886719 219.746094 215.105469 219.039062 C 215.613281 225.003906 215.0625 230.929688 212.746094 237.234375 C 212.679688 237.410156 212.726562 237.597656 212.867188 237.726562 C 213.007812 237.851562 213.199219 237.878906 213.371094 237.796875 Z M 317.449219 264.320312 C 319.945312 270.808594 319.675781 276.679688 318.210938 282.546875 C 316.203125 281.078125 312.496094 279.382812 307.558594 277.679688 C 311.261719 273.996094 314.332031 269.714844 316.609375 264.304688 C 316.679688 264.132812 316.84375 264.027344 317.03125 264.027344 C 317.222656 264.027344 317.378906 264.144531 317.449219 264.320312 Z M 288.851562 257.121094 C 290.992188 262.6875 291.097656 267.804688 290.160156 272.851562 C 286.5625 272.042969 282.765625 271.292969 278.828125 270.617188 C 282.589844 266.90625 285.707031 262.585938 288.015625 257.105469 C 288.089844 256.933594 288.25 256.828125 288.441406 256.828125 C 288.632812 256.828125 288.789062 256.9375 288.855469 257.121094 Z M 256.25 251.203125 C 258.546875 257.171875 258.503906 262.621094 257.339844 268.03125 C 254.335938 267.824219 251.324219 267.6875 248.328125 267.625 C 246.640625 267.589844 244.921875 267.539062 243.171875 267.464844 C 248.324219 263.148438 252.511719 258.082031 255.410156 251.183594 C 255.480469 251.015625 255.644531 250.90625 255.832031 250.910156 C 256.023438 250.910156 256.179688 251.019531 256.25 251.203125 Z M 195.152344 240.109375 C 198.1875 248.007812 197.128906 254.996094 194.796875 262.179688 C 188.902344 261.183594 183.421875 260.128906 178.617188 259.066406 C 185.363281 254.152344 190.78125 248.472656 194.3125 240.09375 C 194.382812 239.921875 194.546875 239.816406 194.734375 239.816406 C 194.925781 239.816406 195.082031 239.925781 195.144531 240.109375 Z M 195.152344 240.109375 " fill-opacity="1" fill-rule="evenodd"/></g></g></g><g clip-path="url(#5a9ab84688)"><g clip-path="url(#6abe42ec36)"><g clip-path="url(#ce01884f14)"><path fill="#4ca626" d="M 61.472656 160.652344 C 66.949219 159.945312 68.859375 160.777344 71.574219 156.535156 C 74.292969 152.289062 79.890625 150.871094 82.523438 156.453125 C 85.160156 162.035156 88.355469 170.515625 92.144531 175.089844 C 95.933594 179.667969 102.292969 184.101562 98.671875 187.332031 C 95.050781 190.566406 91.628906 189.332031 90.300781 193.949219 C 88.976562 198.566406 84.460938 200.664062 79.289062 199.726562 C 74.722656 198.898438 55.390625 188.671875 51.980469 175.785156 C 50.28125 169.335938 55.808594 161.378906 61.472656 160.644531 Z M 47.539062 183.15625 C 53.101562 185.992188 58.257812 195.066406 61.457031 196.863281 C 64.652344 198.664062 72.742188 202.316406 76.632812 203.628906 C 81.488281 205.265625 80.703125 209.855469 76.335938 212.058594 C 74.941406 212.757812 73.492188 213.542969 72.894531 214.855469 C 72.167969 216.453125 72.03125 218.585938 72.042969 220.921875 C 72.058594 228.648438 67.121094 230.125 60.839844 229.683594 C 48.289062 228.800781 28.863281 222.566406 25.328125 209.140625 C 23.316406 201.484375 29.78125 197.3125 34.390625 195.351562 C 37.265625 194.132812 38.410156 192.542969 38.941406 191.09375 C 40.25 187.515625 41.675781 180.175781 47.539062 183.15625 Z M 47.539062 183.15625 " fill-opacity="1" fill-rule="evenodd"/></g></g></g></svg>